<svg width="133" height="31" viewBox="0 0 133 31" fill="none" xmlns="http://www.w3.org/2000/svg">
<path d="M36.588 25L42.188 5.4H47.508L53.08 25H49.972L48.684 20.38H41.012L39.724 25H36.588ZM41.768 17.58H47.928L45.072 7.276H44.624L41.768 17.58ZM54.8194 25V11.196H57.7034V25H54.8194ZM56.2754 9.32C55.7154 9.32 55.2394 9.14267 54.8474 8.788C54.4741 8.41467 54.2874 7.93867 54.2874 7.36C54.2874 6.78133 54.4741 6.31467 54.8474 5.96C55.2394 5.58667 55.7154 5.4 56.2754 5.4C56.8541 5.4 57.3301 5.58667 57.7034 5.96C58.0767 6.31467 58.2634 6.78133 58.2634 7.36C58.2634 7.93867 58.0767 8.41467 57.7034 8.788C57.3301 9.14267 56.8541 9.32 56.2754 9.32ZM60.9835 25V11.196H63.8115V12.82H64.2595C64.4835 12.2413 64.8381 11.8213 65.3235 11.56C65.8275 11.28 66.4435 11.14 67.1715 11.14H68.8235V13.744H67.0595C66.1261 13.744 65.3608 14.0053 64.7635 14.528C64.1661 15.032 63.8675 15.816 63.8675 16.88V25H60.9835ZM70.7276 25V5.4H76.5516L81.8716 22.984H82.3196V5.4H85.3156V25H79.4916L74.1716 7.388H73.7236V25H70.7276ZM92.7714 25.392C91.782 25.392 90.8954 25.224 90.1114 24.888C89.346 24.552 88.73 24.0573 88.2634 23.404C87.8154 22.7507 87.5914 21.9573 87.5914 21.024C87.5914 20.072 87.8154 19.288 88.2634 18.672C88.73 18.0373 89.3554 17.5613 90.1394 17.244C90.942 16.9267 91.8474 16.768 92.8554 16.768H97.0554V15.872C97.0554 15.0693 96.8127 14.4253 96.3274 13.94C95.842 13.4547 95.0954 13.212 94.0874 13.212C93.098 13.212 92.342 13.4453 91.8194 13.912C91.2967 14.3787 90.9514 14.9853 90.7834 15.732L88.0954 14.864C88.3194 14.1173 88.674 13.4453 89.1594 12.848C89.6634 12.232 90.326 11.7373 91.1474 11.364C91.9687 10.9907 92.958 10.804 94.1154 10.804C95.9074 10.804 97.3167 11.2613 98.3434 12.176C99.37 13.0907 99.8834 14.388 99.8834 16.068V21.752C99.8834 22.312 100.145 22.592 100.667 22.592H101.843V25H99.6874C99.034 25 98.502 24.832 98.0914 24.496C97.6807 24.16 97.4754 23.7027 97.4754 23.124V23.04H97.0554C96.906 23.32 96.682 23.6467 96.3834 24.02C96.0847 24.3933 95.646 24.72 95.0674 25C94.4887 25.2613 93.7234 25.392 92.7714 25.392ZM93.1914 23.012C94.3487 23.012 95.282 22.6853 95.9914 22.032C96.7007 21.36 97.0554 20.4453 97.0554 19.288V19.008H93.0234C92.258 19.008 91.642 19.176 91.1754 19.512C90.7087 19.8293 90.4754 20.3053 90.4754 20.94C90.4754 21.5747 90.718 22.0787 91.2034 22.452C91.6887 22.8253 92.3514 23.012 93.1914 23.012ZM102.647 18.168V17.748C102.647 16.292 102.937 15.0507 103.515 14.024C104.113 12.9973 104.897 12.204 105.867 11.644C106.838 11.084 107.902 10.804 109.059 10.804C110.403 10.804 111.43 11.056 112.139 11.56C112.867 12.064 113.399 12.6053 113.735 13.184H114.183V11.196H116.983V27.828C116.983 28.668 116.731 29.34 116.227 29.844C115.742 30.348 115.07 30.6 114.211 30.6H104.915V28.08H113.315C113.857 28.08 114.127 27.8 114.127 27.24V22.844H113.679C113.474 23.18 113.185 23.5253 112.811 23.88C112.438 24.2347 111.943 24.524 111.327 24.748C110.73 24.972 109.974 25.084 109.059 25.084C107.902 25.084 106.829 24.8133 105.839 24.272C104.869 23.712 104.094 22.9187 103.515 21.892C102.937 20.8467 102.647 19.6053 102.647 18.168ZM109.843 22.564C111.094 22.564 112.121 22.172 112.923 21.388C113.745 20.5853 114.155 19.484 114.155 18.084V17.832C114.155 16.3947 113.754 15.2933 112.951 14.528C112.149 13.744 111.113 13.352 109.843 13.352C108.611 13.352 107.585 13.744 106.763 14.528C105.961 15.2933 105.559 16.3947 105.559 17.832V18.084C105.559 19.484 105.961 20.5853 106.763 21.388C107.585 22.172 108.611 22.564 109.843 22.564ZM125.886 25.392C124.131 25.392 122.675 25 121.518 24.216C120.36 23.432 119.651 22.2467 119.39 20.66L122.078 20.016C122.227 20.7813 122.479 21.388 122.834 21.836C123.188 22.284 123.627 22.6013 124.15 22.788C124.691 22.9747 125.27 23.068 125.886 23.068C126.8 23.068 127.5 22.8907 127.986 22.536C128.49 22.1813 128.742 21.724 128.742 21.164C128.742 20.604 128.508 20.1933 128.042 19.932C127.575 19.6707 126.884 19.456 125.97 19.288L125.018 19.12C124.084 18.952 123.235 18.7093 122.47 18.392C121.704 18.0747 121.098 17.636 120.65 17.076C120.202 16.516 119.978 15.7973 119.978 14.92C119.978 13.6133 120.463 12.6053 121.434 11.896C122.404 11.168 123.692 10.804 125.298 10.804C126.847 10.804 128.116 11.1587 129.106 11.868C130.114 12.5587 130.767 13.5013 131.066 14.696L128.378 15.452C128.21 14.612 127.855 14.024 127.314 13.688C126.772 13.3333 126.1 13.156 125.298 13.156C124.514 13.156 123.898 13.3053 123.45 13.604C123.002 13.884 122.778 14.2853 122.778 14.808C122.778 15.368 122.992 15.7787 123.422 16.04C123.87 16.3013 124.467 16.4973 125.214 16.628L126.194 16.796C127.183 16.964 128.088 17.1973 128.91 17.496C129.731 17.7947 130.375 18.224 130.842 18.784C131.327 19.344 131.57 20.0907 131.57 21.024C131.57 22.4053 131.056 23.4787 130.03 24.244C129.003 25.0093 127.622 25.392 125.886 25.392Z" fill="#2A2A2A"/>
<path fill-rule="evenodd" clip-rule="evenodd" d="M14.902 10.5882L15.6305 9.95549L16.8628 8.88528V1.70296C16.8628 0.762547 15.9848 0 14.902 0C13.8192 0 12.9412 0.762547 12.9412 1.70296V8.88528L14.1734 9.95549L14.902 10.5882ZM14.902 19.4118L14.1734 20.0445L12.9412 21.1147V28.297C12.9412 29.2375 13.8192 30 14.902 30C15.9848 30 16.8628 29.2375 16.8628 28.297V21.1147L15.6305 20.0445L14.902 19.4118ZM20.0441 14.1734L21.1147 12.9412H28.297C29.2375 12.9412 30 13.8192 30 14.902C30 15.9847 29.2375 16.8627 28.297 16.8627H21.1147L20.0441 15.6305L19.4118 14.902L20.0441 14.1734ZM10.5882 14.902L9.95549 14.1734L8.88528 12.9412H1.70296C0.762547 12.9412 0 13.8192 0 14.902C0 15.9847 0.762547 16.8627 1.70296 16.8627H8.88528L9.95549 15.6305L10.5882 14.902ZM11.6941 15.8823L14.1176 18.3059L13.4809 18.9426L6.84694 25.5765C6.5122 25.9112 6.07387 26.0784 5.63516 26.0784C5.41581 26.0784 5.19683 26.0365 4.99043 25.9528C4.78402 25.8694 4.59094 25.7437 4.42338 25.5765C3.75427 24.9074 3.75427 23.8221 4.42338 23.153L11.0573 16.5191L11.6941 15.8823ZM15.8824 11.6941L18.3059 14.1177L18.9427 13.4809L25.5766 6.84704C26.2457 6.17794 26.2457 5.09299 25.5766 4.4235C25.4091 4.25632 25.216 4.13065 25.0096 4.04725C24.8036 3.96347 24.5842 3.92158 24.3648 3.92158C23.9261 3.92158 23.4878 4.08876 23.1531 4.4235L16.5191 11.0574L15.8824 11.6941ZM14.6078 12.2262L16.9895 14.6079L18.6736 16.292L25.1928 22.8113C25.8507 23.4692 25.8507 24.5355 25.1928 25.193C24.8642 25.522 24.4331 25.6863 24.002 25.6863C23.5712 25.6863 23.1401 25.522 22.8112 25.193L16.2919 18.6737L14.6078 16.9896L12.2262 14.6079L10.5421 12.9237L4.02282 6.40438C3.36491 5.74645 3.36491 4.68023 4.02282 4.02268C4.10478 3.94034 4.19348 3.86849 4.28704 3.80674C4.47378 3.68361 4.67962 3.60128 4.89181 3.56011C4.99809 3.53953 5.10587 3.52942 5.21365 3.52942C5.6444 3.52942 6.07553 3.69372 6.40449 4.02268L12.9237 10.542L14.6078 12.2262Z" fill="#2B2B2B"/>
</svg>
